<mxfile host="65bd71144e" modified="2020-10-10T08:24:48.411Z" agent="5.0 (Windows NT 10.0; Win64; x64) AppleWebKit/537.36 (KHTML, like Gecko) Code/1.48.2 Chrome/78.0.3904.130 Electron/7.3.2 Safari/537.36" etag="kPfx5-msUm5wq1tI-eYr" version="13.6.5">
    <diagram id="RjcjVuEInLvihBYfl9KC" name="Page-1">
        <mxGraphModel dx="734" dy="471" grid="1" gridSize="10" guides="1" tooltips="1" connect="1" arrows="1" fold="1" page="1" pageScale="1" pageWidth="800" pageHeight="800" math="0" shadow="0">
            <root>
                <mxCell id="0"/>
                <mxCell id="1" parent="0"/>
                <mxCell id="197" value="" style="ellipse;shape=cloud;whiteSpace=wrap;html=1;" vertex="1" parent="1">
                    <mxGeometry x="330" y="420" width="380" height="300" as="geometry"/>
                </mxCell>
                <mxCell id="13" value="DockerHub" style="swimlane;" parent="1" vertex="1">
                    <mxGeometry x="349" y="65" width="380" height="260" as="geometry"/>
                </mxCell>
                <mxCell id="2" value="Dockerfile" style="shape=note;whiteSpace=wrap;html=1;backgroundOutline=1;darkOpacity=0.05;" parent="13" vertex="1">
                    <mxGeometry x="24" y="145" width="80" height="100" as="geometry"/>
                </mxCell>
                <mxCell id="6" value="osrf/docker_images&lt;br&gt;Nightly Build" style="html=1;whiteSpace=wrap;rounded=1;dropTarget=0;" parent="13" vertex="1">
                    <mxGeometry x="12" y="35" width="120" height="80" as="geometry"/>
                </mxCell>
                <mxCell id="7" value="" style="shape=mxgraph.bpmn.timer_start;perimeter=ellipsePerimeter;html=1;verticalLabelPosition=bottom;labelBackgroundColor=#ffffff;verticalAlign=top;outlineConnect=0;" parent="6" vertex="1">
                    <mxGeometry x="1" y="1" width="30" height="30" relative="1" as="geometry">
                        <mxPoint x="-40" y="-15" as="offset"/>
                    </mxGeometry>
                </mxCell>
                <mxCell id="128" value=".dockerhub/" style="pointerEvents=1;shadow=0;dashed=0;html=1;strokeColor=#F0F0F0;fillColor=#434445;aspect=fixed;labelPosition=center;verticalLabelPosition=bottom;verticalAlign=top;align=center;outlineConnect=0;shape=mxgraph.vvd.folder;" parent="13" vertex="1">
                    <mxGeometry x="280" y="35" width="70" height="53.2" as="geometry"/>
                </mxCell>
                <mxCell id="3" value="rosplanning/&lt;br&gt;navigation2:&lt;br&gt;&amp;lt;tag&amp;gt;" style="shape=datastore;whiteSpace=wrap;html=1;" parent="13" vertex="1">
                    <mxGeometry x="287" y="150" width="80" height="90" as="geometry"/>
                </mxCell>
                <mxCell id="4" value="osrf/&lt;br&gt;ros2:&lt;br&gt;nightly" style="shape=datastore;whiteSpace=wrap;html=1;" parent="13" vertex="1">
                    <mxGeometry x="162" y="30" width="80" height="90" as="geometry"/>
                </mxCell>
                <mxCell id="146" style="edgeStyle=orthogonalEdgeStyle;rounded=0;orthogonalLoop=1;jettySize=auto;html=1;" parent="13" source="6" target="4" edge="1">
                    <mxGeometry relative="1" as="geometry"/>
                </mxCell>
                <mxCell id="178" style="edgeStyle=orthogonalEdgeStyle;rounded=0;orthogonalLoop=1;jettySize=auto;html=1;exitX=1;exitY=0.5;exitDx=0;exitDy=0;" parent="13" source="187" target="3" edge="1">
                    <mxGeometry relative="1" as="geometry">
                        <mxPoint x="271" y="155" as="sourcePoint"/>
                    </mxGeometry>
                </mxCell>
                <mxCell id="11" style="edgeStyle=orthogonalEdgeStyle;rounded=0;orthogonalLoop=1;jettySize=auto;html=1;exitX=0.5;exitY=1;exitDx=0;exitDy=0;entryX=0.5;entryY=0;entryDx=0;entryDy=0;" parent="13" source="4" target="187" edge="1">
                    <mxGeometry relative="1" as="geometry">
                        <mxPoint x="221" y="145" as="targetPoint"/>
                    </mxGeometry>
                </mxCell>
                <mxCell id="18" style="edgeStyle=orthogonalEdgeStyle;rounded=0;orthogonalLoop=1;jettySize=auto;html=1;entryX=0;entryY=0.5;entryDx=0;entryDy=0;" parent="13" source="2" target="187" edge="1">
                    <mxGeometry relative="1" as="geometry">
                        <mxPoint x="131" y="215" as="targetPoint"/>
                    </mxGeometry>
                </mxCell>
                <mxCell id="187" value="ros-planning/&lt;br&gt;navigation2&lt;br&gt;Nightly Build" style="html=1;whiteSpace=wrap;rounded=1;dropTarget=0;" parent="13" vertex="1">
                    <mxGeometry x="142" y="155" width="120" height="80" as="geometry"/>
                </mxCell>
                <mxCell id="188" value="" style="shape=mxgraph.bpmn.timer_start;perimeter=ellipsePerimeter;html=1;verticalLabelPosition=bottom;labelBackgroundColor=#ffffff;verticalAlign=top;outlineConnect=0;" parent="187" vertex="1">
                    <mxGeometry x="1" y="1" width="30" height="30" relative="1" as="geometry">
                        <mxPoint x="-40" y="-15" as="offset"/>
                    </mxGeometry>
                </mxCell>
                <mxCell id="14" value="GitHub" style="swimlane;" parent="1" vertex="1">
                    <mxGeometry x="69" y="65" width="250" height="440" as="geometry">
                        <mxRectangle x="420" y="20" width="70" height="23" as="alternateBounds"/>
                    </mxGeometry>
                </mxCell>
                <mxCell id="159" value="Cache Busting Files" style="swimlane;fontStyle=0;childLayout=stackLayout;horizontal=1;startSize=26;fillColor=none;horizontalStack=0;resizeParent=1;resizeParentMax=0;resizeLast=0;collapsible=1;marginBottom=0;strokeColor=#F0F0F0;" parent="14" vertex="1">
                    <mxGeometry x="10" y="40" width="140" height="104" as="geometry">
                        <mxRectangle x="20" y="70" width="50" height="26" as="alternateBounds"/>
                    </mxGeometry>
                </mxCell>
                <mxCell id="160" value="underlay.repos" style="text;strokeColor=none;fillColor=none;align=left;verticalAlign=top;spacingLeft=4;spacingRight=4;overflow=hidden;rotatable=0;points=[[0,0.5],[1,0.5]];portConstraint=eastwest;" parent="159" vertex="1">
                    <mxGeometry y="26" width="140" height="26" as="geometry"/>
                </mxCell>
                <mxCell id="161" value="package.xml" style="text;strokeColor=none;fillColor=none;align=left;verticalAlign=top;spacingLeft=4;spacingRight=4;overflow=hidden;rotatable=0;points=[[0,0.5],[1,0.5]];portConstraint=eastwest;" parent="159" vertex="1">
                    <mxGeometry y="52" width="140" height="26" as="geometry"/>
                </mxCell>
                <mxCell id="162" value="COLCON_IGNORE&#10;" style="text;strokeColor=none;fillColor=none;align=left;verticalAlign=top;spacingLeft=4;spacingRight=4;overflow=hidden;rotatable=0;points=[[0,0.5],[1,0.5]];portConstraint=eastwest;" parent="159" vertex="1">
                    <mxGeometry y="78" width="140" height="26" as="geometry"/>
                </mxCell>
                <mxCell id="173" value="Branches" style="swimlane;fontStyle=0;childLayout=stackLayout;horizontal=1;startSize=26;fillColor=none;horizontalStack=0;resizeParent=1;resizeParentMax=0;resizeLast=0;collapsible=1;marginBottom=0;strokeColor=#F0F0F0;" parent="14" vertex="1">
                    <mxGeometry x="171" y="156" width="60" height="78" as="geometry"/>
                </mxCell>
                <mxCell id="174" value="main" style="text;strokeColor=none;fillColor=none;align=left;verticalAlign=top;spacingLeft=4;spacingRight=4;overflow=hidden;rotatable=0;points=[[0,0.5],[1,0.5]];portConstraint=eastwest;" parent="173" vertex="1">
                    <mxGeometry y="26" width="60" height="26" as="geometry"/>
                </mxCell>
                <mxCell id="175" value="*-devel" style="text;strokeColor=none;fillColor=none;align=left;verticalAlign=top;spacingLeft=4;spacingRight=4;overflow=hidden;rotatable=0;points=[[0,0.5],[1,0.5]];portConstraint=eastwest;" parent="173" vertex="1">
                    <mxGeometry y="52" width="60" height="26" as="geometry"/>
                </mxCell>
                <mxCell id="150" value="" style="group" parent="14" vertex="1" connectable="0">
                    <mxGeometry x="178" y="353" width="110" height="75" as="geometry"/>
                </mxCell>
                <mxCell id="124" value="Commit Pushed&lt;br&gt;to Pull Request" style="html=1;whiteSpace=wrap;rounded=1;dropTarget=0;" parent="150" vertex="1">
                    <mxGeometry x="-60" width="110" height="55" as="geometry"/>
                </mxCell>
                <mxCell id="125" value="" style="shape=switch;whiteSpace=wrap;html=1;" parent="150" vertex="1">
                    <mxGeometry x="4" y="44" width="30" height="30" as="geometry"/>
                </mxCell>
                <mxCell id="151" value="" style="group" parent="14" vertex="1" connectable="0">
                    <mxGeometry x="118" y="250" width="110" height="73" as="geometry"/>
                </mxCell>
                <mxCell id="126" value="Commit Pushed&lt;br&gt;to Main Branch" style="html=1;whiteSpace=wrap;rounded=1;dropTarget=0;" parent="151" vertex="1">
                    <mxGeometry width="110" height="55" as="geometry"/>
                </mxCell>
                <mxCell id="127" value="" style="shape=switch;whiteSpace=wrap;html=1;" parent="151" vertex="1">
                    <mxGeometry x="64" y="43" width="30" height="30" as="geometry"/>
                </mxCell>
                <mxCell id="158" value=".dockerignore" style="shape=note;whiteSpace=wrap;html=1;backgroundOutline=1;darkOpacity=0.05;" parent="14" vertex="1">
                    <mxGeometry x="160" y="40" width="80" height="90" as="geometry"/>
                </mxCell>
                <mxCell id="181" style="edgeStyle=orthogonalEdgeStyle;rounded=0;orthogonalLoop=1;jettySize=auto;html=1;entryX=0;entryY=0.5;entryDx=0;entryDy=0;" parent="14" source="180" target="126" edge="1">
                    <mxGeometry relative="1" as="geometry"/>
                </mxCell>
                <mxCell id="180" value="" style="pointerEvents=1;shadow=0;dashed=0;html=1;strokeColor=#F0F0F0;fillColor=#505050;labelPosition=center;verticalLabelPosition=bottom;verticalAlign=top;outlineConnect=0;align=center;shape=mxgraph.office.users.universal_security_group;flipH=1;" parent="14" vertex="1">
                    <mxGeometry x="22" y="248.5" width="58" height="58" as="geometry"/>
                </mxCell>
                <mxCell id="184" style="edgeStyle=orthogonalEdgeStyle;rounded=0;orthogonalLoop=1;jettySize=auto;html=1;" parent="14" source="182" target="124" edge="1">
                    <mxGeometry relative="1" as="geometry"/>
                </mxCell>
                <mxCell id="182" value="" style="pointerEvents=1;shadow=0;dashed=0;html=1;strokeColor=#F0F0F0;fillColor=#505050;labelPosition=center;verticalLabelPosition=bottom;verticalAlign=top;outlineConnect=0;align=center;shape=mxgraph.office.users.users;" parent="14" vertex="1">
                    <mxGeometry x="23" y="355.5" width="56" height="50" as="geometry"/>
                </mxCell>
                <mxCell id="19" value="CircleCI" style="swimlane;" parent="1" vertex="1">
                    <mxGeometry x="349" y="365" width="383" height="371" as="geometry"/>
                </mxCell>
                <mxCell id="28" value="Workflow #N" style="swimlane;html=1;childLayout=stackLayout;resizeParent=1;resizeParentMax=0;horizontal=1;startSize=20;horizontalStack=0;" parent="19" vertex="1">
                    <mxGeometry x="41" y="137" width="119" height="170" as="geometry"/>
                </mxCell>
                <mxCell id="29" value="Build Job" style="swimlane;html=1;startSize=20;horizontal=0;" parent="28" vertex="1">
                    <mxGeometry y="20" width="119" height="70" as="geometry"/>
                </mxCell>
                <mxCell id="190" value="Release&lt;br&gt;&lt;div style=&quot;text-align: right&quot;&gt;&lt;span&gt;Debug&lt;/span&gt;&lt;/div&gt;" style="text;html=1;align=center;verticalAlign=middle;resizable=0;points=[];autosize=1;" vertex="1" parent="29">
                    <mxGeometry x="59" width="60" height="30" as="geometry"/>
                </mxCell>
                <mxCell id="41" value="" style="html=1;whiteSpace=wrap;aspect=fixed;shape=isoCube;backgroundOutline=1;" parent="29" vertex="1">
                    <mxGeometry x="25" y="5.779999999999973" width="40" height="44.44" as="geometry"/>
                </mxCell>
                <mxCell id="42" value="" style="html=1;whiteSpace=wrap;aspect=fixed;shape=isoCube;backgroundOutline=1;" parent="29" vertex="1">
                    <mxGeometry x="35" y="15.779999999999973" width="40" height="44.44" as="geometry"/>
                </mxCell>
                <mxCell id="30" value="Test Job" style="swimlane;html=1;startSize=20;horizontal=0;" parent="28" vertex="1">
                    <mxGeometry y="90" width="119" height="80" as="geometry"/>
                </mxCell>
                <mxCell id="38" value="" style="html=1;whiteSpace=wrap;aspect=fixed;shape=isoCube;backgroundOutline=1;" parent="30" vertex="1">
                    <mxGeometry x="35" y="12.779999999999973" width="40" height="44.44" as="geometry"/>
                </mxCell>
                <mxCell id="39" value="" style="html=1;whiteSpace=wrap;aspect=fixed;shape=isoCube;backgroundOutline=1;" parent="30" vertex="1">
                    <mxGeometry x="45" y="22.779999999999973" width="40" height="44.44" as="geometry"/>
                </mxCell>
                <mxCell id="40" value="" style="html=1;whiteSpace=wrap;aspect=fixed;shape=isoCube;backgroundOutline=1;" parent="30" vertex="1">
                    <mxGeometry x="55" y="32.78" width="40" height="44.44" as="geometry"/>
                </mxCell>
                <mxCell id="45" style="edgeStyle=orthogonalEdgeStyle;rounded=0;orthogonalLoop=1;jettySize=auto;html=1;exitX=0;exitY=0;exitDx=20;exitDy=43.767005383792515;exitPerimeter=0;entryX=0;entryY=0;entryDx=20;entryDy=0.6729946162074842;entryPerimeter=0;" parent="28" source="42" target="38" edge="1">
                    <mxGeometry relative="1" as="geometry"/>
                </mxCell>
                <mxCell id="46" value="Test&lt;br&gt;Results" style="text;html=1;align=center;verticalAlign=middle;resizable=0;points=[];autosize=1;" parent="19" vertex="1">
                    <mxGeometry x="86" y="325" width="60" height="30" as="geometry"/>
                </mxCell>
                <mxCell id="47" style="edgeStyle=orthogonalEdgeStyle;rounded=0;orthogonalLoop=1;jettySize=auto;html=1;exitX=0;exitY=0;exitDx=20;exitDy=43.767005383792515;exitPerimeter=0;entryX=0.491;entryY=-0.016;entryDx=0;entryDy=0;entryPerimeter=0;" parent="19" source="40" target="46" edge="1">
                    <mxGeometry relative="1" as="geometry"/>
                </mxCell>
                <mxCell id="67" value="Test&lt;br&gt;Results" style="text;html=1;align=center;verticalAlign=middle;resizable=0;points=[];autosize=1;" parent="19" vertex="1">
                    <mxGeometry x="253" y="325" width="60" height="30" as="geometry"/>
                </mxCell>
                <mxCell id="81" style="edgeStyle=orthogonalEdgeStyle;rounded=0;orthogonalLoop=1;jettySize=auto;html=1;entryX=0;entryY=0.5;entryDx=0;entryDy=0;" parent="19" source="29" edge="1">
                    <mxGeometry relative="1" as="geometry">
                        <mxPoint x="208" y="192" as="targetPoint"/>
                    </mxGeometry>
                </mxCell>
                <mxCell id="82" value="Cache" style="text;html=1;align=center;verticalAlign=middle;resizable=0;points=[];autosize=1;" parent="19" vertex="1">
                    <mxGeometry x="157" y="270" width="50" height="20" as="geometry"/>
                </mxCell>
                <mxCell id="83" style="edgeStyle=orthogonalEdgeStyle;rounded=0;orthogonalLoop=1;jettySize=auto;html=1;entryX=0;entryY=0.5;entryDx=0;entryDy=0;" parent="19" source="30" edge="1">
                    <mxGeometry relative="1" as="geometry">
                        <mxPoint x="208" y="267" as="targetPoint"/>
                    </mxGeometry>
                </mxCell>
                <mxCell id="84" value="Cache" style="text;html=1;align=center;verticalAlign=middle;resizable=0;points=[];autosize=1;" parent="19" vertex="1">
                    <mxGeometry x="157" y="200" width="50" height="20" as="geometry"/>
                </mxCell>
                <mxCell id="85" style="edgeStyle=orthogonalEdgeStyle;rounded=0;orthogonalLoop=1;jettySize=auto;html=1;entryX=0;entryY=0.5;entryDx=0;entryDy=0;" parent="19" edge="1">
                    <mxGeometry relative="1" as="geometry">
                        <mxPoint x="331" y="192" as="sourcePoint"/>
                        <mxPoint x="375" y="192" as="targetPoint"/>
                    </mxGeometry>
                </mxCell>
                <mxCell id="86" value="Cache" style="text;html=1;align=center;verticalAlign=middle;resizable=0;points=[];autosize=1;" parent="19" vertex="1">
                    <mxGeometry x="330" y="270" width="50" height="20" as="geometry"/>
                </mxCell>
                <mxCell id="87" style="edgeStyle=orthogonalEdgeStyle;rounded=0;orthogonalLoop=1;jettySize=auto;html=1;entryX=0;entryY=0.5;entryDx=0;entryDy=0;" parent="19" edge="1">
                    <mxGeometry relative="1" as="geometry">
                        <mxPoint x="331" y="267" as="sourcePoint"/>
                        <mxPoint x="375" y="267" as="targetPoint"/>
                    </mxGeometry>
                </mxCell>
                <mxCell id="88" value="Cache" style="text;html=1;align=center;verticalAlign=middle;resizable=0;points=[];autosize=1;" parent="19" vertex="1">
                    <mxGeometry x="330" y="200" width="50" height="20" as="geometry"/>
                </mxCell>
                <mxCell id="118" style="edgeStyle=orthogonalEdgeStyle;rounded=0;orthogonalLoop=1;jettySize=auto;html=1;" parent="19" source="116" target="67" edge="1">
                    <mxGeometry relative="1" as="geometry"/>
                </mxCell>
                <mxCell id="129" value=".circleci/" style="pointerEvents=1;shadow=0;dashed=0;html=1;strokeColor=#F0F0F0;fillColor=#434445;aspect=fixed;labelPosition=center;verticalLabelPosition=bottom;verticalAlign=top;align=center;outlineConnect=0;shape=mxgraph.vvd.folder;" parent="19" vertex="1">
                    <mxGeometry x="270" y="40" width="70" height="53.2" as="geometry"/>
                </mxCell>
                <mxCell id="138" value="ros-planning/&lt;br&gt;navigation2&lt;br&gt;Build Trigger" style="html=1;whiteSpace=wrap;rounded=1;dropTarget=0;" parent="19" vertex="1">
                    <mxGeometry x="40" y="40" width="164" height="80" as="geometry"/>
                </mxCell>
                <mxCell id="139" value="" style="shape=mxgraph.bpmn.timer_start;perimeter=ellipsePerimeter;html=1;verticalLabelPosition=bottom;labelBackgroundColor=#ffffff;verticalAlign=top;outlineConnect=0;" parent="138" vertex="1">
                    <mxGeometry x="1" y="1" width="30" height="30" relative="1" as="geometry">
                        <mxPoint x="-40" y="-15" as="offset"/>
                    </mxGeometry>
                </mxCell>
                <mxCell id="194" value="Debug&lt;br&gt;Coverage" style="text;html=1;align=center;verticalAlign=middle;resizable=0;points=[];autosize=1;" vertex="1" parent="19">
                    <mxGeometry x="1" y="325" width="70" height="30" as="geometry"/>
                </mxCell>
                <mxCell id="109" value="Workflow #N+1" style="swimlane;html=1;childLayout=stackLayout;resizeParent=1;resizeParentMax=0;horizontal=1;startSize=20;horizontalStack=0;" parent="19" vertex="1">
                    <mxGeometry x="207" y="137" width="123" height="170" as="geometry"/>
                </mxCell>
                <mxCell id="110" value="Build Job" style="swimlane;html=1;startSize=20;horizontal=0;" parent="109" vertex="1">
                    <mxGeometry y="20" width="123" height="70" as="geometry"/>
                </mxCell>
                <mxCell id="191" value="Release&lt;br&gt;&lt;div style=&quot;text-align: right&quot;&gt;&lt;span&gt;Debug&lt;/span&gt;&lt;/div&gt;" style="text;html=1;align=center;verticalAlign=middle;resizable=0;points=[];autosize=1;" vertex="1" parent="110">
                    <mxGeometry x="63" width="60" height="30" as="geometry"/>
                </mxCell>
                <mxCell id="111" value="" style="html=1;whiteSpace=wrap;aspect=fixed;shape=isoCube;backgroundOutline=1;" parent="110" vertex="1">
                    <mxGeometry x="25" y="5.779999999999973" width="40" height="44.44" as="geometry"/>
                </mxCell>
                <mxCell id="112" value="" style="html=1;whiteSpace=wrap;aspect=fixed;shape=isoCube;backgroundOutline=1;" parent="110" vertex="1">
                    <mxGeometry x="35" y="15.779999999999973" width="40" height="44.44" as="geometry"/>
                </mxCell>
                <mxCell id="113" value="Test Job" style="swimlane;html=1;startSize=20;horizontal=0;" parent="109" vertex="1">
                    <mxGeometry y="90" width="123" height="80" as="geometry"/>
                </mxCell>
                <mxCell id="193" value="Release&lt;br&gt;&lt;div style=&quot;text-align: right&quot;&gt;&lt;span&gt;Debug&lt;/span&gt;&lt;/div&gt;&lt;div style=&quot;text-align: right&quot;&gt;&lt;span&gt;rmw&lt;/span&gt;&lt;/div&gt;" style="text;html=1;align=center;verticalAlign=middle;resizable=0;points=[];autosize=1;" vertex="1" parent="113">
                    <mxGeometry x="63" width="60" height="50" as="geometry"/>
                </mxCell>
                <mxCell id="114" value="" style="html=1;whiteSpace=wrap;aspect=fixed;shape=isoCube;backgroundOutline=1;" parent="113" vertex="1">
                    <mxGeometry x="35" y="12.779999999999973" width="40" height="44.44" as="geometry"/>
                </mxCell>
                <mxCell id="115" value="" style="html=1;whiteSpace=wrap;aspect=fixed;shape=isoCube;backgroundOutline=1;" parent="113" vertex="1">
                    <mxGeometry x="45" y="22.779999999999973" width="40" height="44.44" as="geometry"/>
                </mxCell>
                <mxCell id="116" value="" style="html=1;whiteSpace=wrap;aspect=fixed;shape=isoCube;backgroundOutline=1;" parent="113" vertex="1">
                    <mxGeometry x="55" y="32.78" width="40" height="44.44" as="geometry"/>
                </mxCell>
                <mxCell id="117" style="edgeStyle=orthogonalEdgeStyle;rounded=0;orthogonalLoop=1;jettySize=auto;html=1;exitX=0;exitY=0;exitDx=20;exitDy=43.767005383792515;exitPerimeter=0;entryX=0;entryY=0;entryDx=20;entryDy=0.6729946162074842;entryPerimeter=0;" parent="109" source="112" target="114" edge="1">
                    <mxGeometry relative="1" as="geometry"/>
                </mxCell>
                <mxCell id="20" value="CodeCov" style="swimlane;" parent="1" vertex="1">
                    <mxGeometry x="71" y="542" width="250" height="193" as="geometry"/>
                </mxCell>
                <mxCell id="157" style="edgeStyle=orthogonalEdgeStyle;rounded=0;orthogonalLoop=1;jettySize=auto;html=1;entryX=0.5;entryY=1;entryDx=0;entryDy=0;" parent="20" source="91" target="92" edge="1">
                    <mxGeometry relative="1" as="geometry"/>
                </mxCell>
                <mxCell id="91" value="Post Proccess&lt;br&gt;Code Coverage" style="shape=ext;double=1;rounded=1;whiteSpace=wrap;html=1;" parent="20" vertex="1">
                    <mxGeometry x="108" y="102.77999999999997" width="120" height="80" as="geometry"/>
                </mxCell>
                <mxCell id="145" value="codecov&amp;nbsp; &amp;nbsp; &amp;nbsp;&amp;nbsp;&lt;br&gt;.yml" style="shape=note;whiteSpace=wrap;html=1;backgroundOutline=1;darkOpacity=0.05;" parent="20" vertex="1">
                    <mxGeometry x="138" y="35" width="90" height="48" as="geometry"/>
                </mxCell>
                <mxCell id="92" value="Code Coverage Results" style="shape=datastore;whiteSpace=wrap;html=1;" parent="20" vertex="1">
                    <mxGeometry x="18" y="33" width="80" height="90" as="geometry"/>
                </mxCell>
                <mxCell id="94" style="edgeStyle=orthogonalEdgeStyle;rounded=0;orthogonalLoop=1;jettySize=auto;html=1;entryX=1;entryY=0.75;entryDx=0;entryDy=0;" parent="1" source="46" target="91" edge="1">
                    <mxGeometry relative="1" as="geometry"/>
                </mxCell>
                <mxCell id="141" style="edgeStyle=orthogonalEdgeStyle;rounded=0;orthogonalLoop=1;jettySize=auto;html=1;entryX=0.5;entryY=1;entryDx=0;entryDy=0;" parent="1" source="126" target="187" edge="1">
                    <mxGeometry relative="1" as="geometry">
                        <mxPoint x="590" y="343" as="targetPoint"/>
                    </mxGeometry>
                </mxCell>
                <mxCell id="142" style="edgeStyle=orthogonalEdgeStyle;rounded=0;orthogonalLoop=1;jettySize=auto;html=1;" parent="1" source="126" target="138" edge="1">
                    <mxGeometry relative="1" as="geometry"/>
                </mxCell>
                <mxCell id="153" style="edgeStyle=orthogonalEdgeStyle;rounded=0;orthogonalLoop=1;jettySize=auto;html=1;" parent="1" source="124" target="138" edge="1">
                    <mxGeometry relative="1" as="geometry"/>
                </mxCell>
                <mxCell id="177" style="edgeStyle=orthogonalEdgeStyle;rounded=0;orthogonalLoop=1;jettySize=auto;html=1;entryX=0;entryY=0.5;entryDx=0;entryDy=0;entryPerimeter=0;" parent="1" source="173" target="2" edge="1">
                    <mxGeometry relative="1" as="geometry"/>
                </mxCell>
                <mxCell id="186" style="edgeStyle=orthogonalEdgeStyle;rounded=0;orthogonalLoop=1;jettySize=auto;html=1;entryX=0.854;entryY=-0.001;entryDx=0;entryDy=0;entryPerimeter=0;" parent="1" source="3" target="19" edge="1">
                    <mxGeometry relative="1" as="geometry"/>
                </mxCell>
                <mxCell id="192" value="Release&lt;br&gt;&lt;div style=&quot;text-align: right&quot;&gt;&lt;span&gt;Debug&lt;/span&gt;&lt;/div&gt;&lt;div style=&quot;text-align: right&quot;&gt;&lt;span&gt;rmw&lt;/span&gt;&lt;/div&gt;" style="text;html=1;align=center;verticalAlign=middle;resizable=0;points=[];autosize=1;" vertex="1" parent="1">
                    <mxGeometry x="449" y="592" width="60" height="50" as="geometry"/>
                </mxCell>
            </root>
        </mxGraphModel>
    </diagram>
</mxfile>